<mxfile host="app.diagrams.net" modified="2023-12-04T09:13:05.898Z" agent="Mozilla/5.0 (Windows NT 10.0; Win64; x64) AppleWebKit/537.36 (KHTML, like Gecko) Chrome/119.0.0.0 Safari/537.36" version="22.1.5" etag="xGN2obgrlIRDFWnnCpp5" type="device">
  <diagram id="RSTl0ZOIpTDLpABqFShS" name="Страница — 1">
    <mxGraphModel dx="1434" dy="758" grid="1" gridSize="10" guides="1" tooltips="1" connect="1" arrows="1" fold="1" page="1" pageScale="1" pageWidth="827" pageHeight="1169" math="0" shadow="0">
      <root>
        <mxCell id="0" />
        <mxCell id="1" parent="0" />
        <mxCell id="gntEuh4Ts5PHArGjGe8d-1" value="&lt;font style=&quot;font-size: 31px;&quot;&gt;Rest API&lt;/font&gt;" style="text;html=1;strokeColor=none;fillColor=none;align=center;verticalAlign=middle;whiteSpace=wrap;rounded=0;" vertex="1" parent="1">
          <mxGeometry x="540" y="50" width="210" height="90" as="geometry" />
        </mxCell>
        <mxCell id="gntEuh4Ts5PHArGjGe8d-3" value="" style="shape=flexArrow;endArrow=classic;startArrow=classic;html=1;rounded=0;exitX=0.592;exitY=1;exitDx=0;exitDy=0;entryX=0.128;entryY=0.002;entryDx=0;entryDy=0;entryPerimeter=0;exitPerimeter=0;" edge="1" parent="1" target="gntEuh4Ts5PHArGjGe8d-30">
          <mxGeometry width="100" height="100" relative="1" as="geometry">
            <mxPoint x="127.03999999999996" y="80" as="sourcePoint" />
            <mxPoint x="124" y="299.05999999999995" as="targetPoint" />
          </mxGeometry>
        </mxCell>
        <mxCell id="gntEuh4Ts5PHArGjGe8d-5" value="&lt;font style=&quot;font-size: 23px;&quot;&gt;HTTP&lt;/font&gt;" style="rounded=0;whiteSpace=wrap;html=1;" vertex="1" parent="1">
          <mxGeometry x="120" y="310" width="170" height="110" as="geometry" />
        </mxCell>
        <mxCell id="gntEuh4Ts5PHArGjGe8d-6" value="&lt;font style=&quot;font-size: 16px;&quot;&gt;Repository Service&lt;/font&gt;" style="rounded=0;whiteSpace=wrap;html=1;" vertex="1" parent="1">
          <mxGeometry x="280" y="478" width="120" height="60" as="geometry" />
        </mxCell>
        <mxCell id="gntEuh4Ts5PHArGjGe8d-7" value="Database MongoDb.&lt;br&gt;FileStream and FileInfo" style="rounded=0;whiteSpace=wrap;html=1;" vertex="1" parent="1">
          <mxGeometry x="580" y="490" width="160" height="60" as="geometry" />
        </mxCell>
        <mxCell id="gntEuh4Ts5PHArGjGe8d-8" value="&lt;font style=&quot;font-size: 17px;&quot;&gt;Calculation Service&lt;/font&gt;" style="rounded=0;whiteSpace=wrap;html=1;" vertex="1" parent="1">
          <mxGeometry x="100" y="490" width="120" height="60" as="geometry" />
        </mxCell>
        <mxCell id="gntEuh4Ts5PHArGjGe8d-10" value="" style="endArrow=classic;startArrow=classic;html=1;rounded=0;exitX=0.75;exitY=1;exitDx=0;exitDy=0;entryX=0.25;entryY=0;entryDx=0;entryDy=0;" edge="1" parent="1" source="gntEuh4Ts5PHArGjGe8d-5" target="gntEuh4Ts5PHArGjGe8d-6">
          <mxGeometry width="50" height="50" relative="1" as="geometry">
            <mxPoint x="288" y="410" as="sourcePoint" />
            <mxPoint x="358" y="410" as="targetPoint" />
          </mxGeometry>
        </mxCell>
        <mxCell id="gntEuh4Ts5PHArGjGe8d-12" value="FileInfo Cache" style="rounded=0;whiteSpace=wrap;html=1;" vertex="1" parent="1">
          <mxGeometry x="450" y="370" width="120" height="60" as="geometry" />
        </mxCell>
        <mxCell id="gntEuh4Ts5PHArGjGe8d-13" value="" style="endArrow=classic;startArrow=classic;html=1;rounded=0;entryX=0;entryY=0.5;entryDx=0;entryDy=0;" edge="1" parent="1" target="gntEuh4Ts5PHArGjGe8d-12">
          <mxGeometry width="50" height="50" relative="1" as="geometry">
            <mxPoint x="400" y="500" as="sourcePoint" />
            <mxPoint x="610" y="520" as="targetPoint" />
          </mxGeometry>
        </mxCell>
        <mxCell id="gntEuh4Ts5PHArGjGe8d-15" value="" style="endArrow=classic;startArrow=classic;html=1;rounded=0;entryX=1;entryY=0.5;entryDx=0;entryDy=0;exitX=0.5;exitY=0;exitDx=0;exitDy=0;" edge="1" parent="1" source="gntEuh4Ts5PHArGjGe8d-7" target="gntEuh4Ts5PHArGjGe8d-12">
          <mxGeometry width="50" height="50" relative="1" as="geometry">
            <mxPoint x="500" y="710" as="sourcePoint" />
            <mxPoint x="550" y="660" as="targetPoint" />
          </mxGeometry>
        </mxCell>
        <mxCell id="gntEuh4Ts5PHArGjGe8d-16" value="" style="endArrow=classic;startArrow=classic;html=1;rounded=0;entryX=1;entryY=0.75;entryDx=0;entryDy=0;exitX=0;exitY=0.5;exitDx=0;exitDy=0;" edge="1" parent="1" source="gntEuh4Ts5PHArGjGe8d-7" target="gntEuh4Ts5PHArGjGe8d-6">
          <mxGeometry width="50" height="50" relative="1" as="geometry">
            <mxPoint x="360" y="640" as="sourcePoint" />
            <mxPoint x="410" y="590" as="targetPoint" />
          </mxGeometry>
        </mxCell>
        <mxCell id="gntEuh4Ts5PHArGjGe8d-17" value="" style="endArrow=classic;startArrow=classic;html=1;rounded=0;exitX=0.5;exitY=0;exitDx=0;exitDy=0;entryX=0.5;entryY=1;entryDx=0;entryDy=0;" edge="1" parent="1" source="gntEuh4Ts5PHArGjGe8d-8" target="gntEuh4Ts5PHArGjGe8d-5">
          <mxGeometry width="50" height="50" relative="1" as="geometry">
            <mxPoint x="70" y="470" as="sourcePoint" />
            <mxPoint x="120" y="420" as="targetPoint" />
          </mxGeometry>
        </mxCell>
        <mxCell id="gntEuh4Ts5PHArGjGe8d-18" value="FileStream" style="text;html=1;strokeColor=none;fillColor=none;align=center;verticalAlign=middle;whiteSpace=wrap;rounded=0;" vertex="1" parent="1">
          <mxGeometry x="470" y="530" width="60" height="30" as="geometry" />
        </mxCell>
        <mxCell id="gntEuh4Ts5PHArGjGe8d-19" value="FileInfo" style="text;html=1;strokeColor=none;fillColor=none;align=center;verticalAlign=middle;whiteSpace=wrap;rounded=0;" vertex="1" parent="1">
          <mxGeometry x="380" y="420" width="60" height="30" as="geometry" />
        </mxCell>
        <mxCell id="gntEuh4Ts5PHArGjGe8d-22" value="&lt;font style=&quot;font-size: 27px;&quot;&gt;Server&lt;/font&gt;" style="text;html=1;strokeColor=none;fillColor=none;align=center;verticalAlign=middle;whiteSpace=wrap;rounded=0;" vertex="1" parent="1">
          <mxGeometry x="320" y="260" width="180" height="50" as="geometry" />
        </mxCell>
        <mxCell id="gntEuh4Ts5PHArGjGe8d-23" value="&lt;font style=&quot;font-size: 17px;&quot;&gt;SAGA GIS&lt;/font&gt;" style="rounded=0;whiteSpace=wrap;html=1;" vertex="1" parent="1">
          <mxGeometry x="100" y="690" width="120" height="60" as="geometry" />
        </mxCell>
        <mxCell id="gntEuh4Ts5PHArGjGe8d-24" value="file .bat (cmd file)" style="rounded=0;whiteSpace=wrap;html=1;" vertex="1" parent="1">
          <mxGeometry x="126" y="600" width="68" height="40" as="geometry" />
        </mxCell>
        <mxCell id="gntEuh4Ts5PHArGjGe8d-25" value="" style="endArrow=classic;startArrow=classic;html=1;rounded=0;exitX=0.5;exitY=0;exitDx=0;exitDy=0;" edge="1" parent="1" source="gntEuh4Ts5PHArGjGe8d-24">
          <mxGeometry width="50" height="50" relative="1" as="geometry">
            <mxPoint x="290" y="630" as="sourcePoint" />
            <mxPoint x="160" y="550" as="targetPoint" />
          </mxGeometry>
        </mxCell>
        <mxCell id="gntEuh4Ts5PHArGjGe8d-26" value="" style="endArrow=classic;startArrow=classic;html=1;rounded=0;entryX=0.5;entryY=1;entryDx=0;entryDy=0;exitX=0.5;exitY=0;exitDx=0;exitDy=0;" edge="1" parent="1" source="gntEuh4Ts5PHArGjGe8d-23" target="gntEuh4Ts5PHArGjGe8d-24">
          <mxGeometry width="50" height="50" relative="1" as="geometry">
            <mxPoint x="150" y="740" as="sourcePoint" />
            <mxPoint x="200" y="690" as="targetPoint" />
          </mxGeometry>
        </mxCell>
        <mxCell id="gntEuh4Ts5PHArGjGe8d-27" style="edgeStyle=orthogonalEdgeStyle;rounded=0;orthogonalLoop=1;jettySize=auto;html=1;exitX=0.5;exitY=1;exitDx=0;exitDy=0;" edge="1" parent="1">
          <mxGeometry relative="1" as="geometry">
            <mxPoint x="410" y="770" as="sourcePoint" />
            <mxPoint x="410" y="770" as="targetPoint" />
          </mxGeometry>
        </mxCell>
        <mxCell id="gntEuh4Ts5PHArGjGe8d-30" value="" style="shape=ext;double=1;rounded=1;whiteSpace=wrap;html=1;fillColor=none;" vertex="1" parent="1">
          <mxGeometry x="35" y="300" width="725" height="460" as="geometry" />
        </mxCell>
        <mxCell id="gntEuh4Ts5PHArGjGe8d-31" value="&lt;font style=&quot;font-size: 29px;&quot;&gt;Client&lt;/font&gt;" style="shape=ext;double=1;rounded=1;whiteSpace=wrap;html=1;" vertex="1" parent="1">
          <mxGeometry x="70" y="20" width="120" height="60" as="geometry" />
        </mxCell>
      </root>
    </mxGraphModel>
  </diagram>
</mxfile>
